<mxfile host="app.diagrams.net" agent="Mozilla/5.0 (Windows NT 10.0; Win64; x64) AppleWebKit/537.36 (KHTML, like Gecko) Chrome/130.0.0.0 Safari/537.36" version="24.8.6">
  <diagram name="Page-1" id="McgcGxLk_ZRfMg0aqA5W">
    <mxGraphModel dx="1687" dy="868" grid="1" gridSize="10" guides="1" tooltips="1" connect="1" arrows="1" fold="1" page="1" pageScale="1" pageWidth="850" pageHeight="1100" math="0" shadow="0">
      <root>
        <mxCell id="0" />
        <mxCell id="iSizkOf7c_K9tfDlirgX-57" value="lifetime_lines" style="" parent="0" />
        <mxCell id="iSizkOf7c_K9tfDlirgX-15" value="DB" style="shape=umlLifeline;perimeter=lifelinePerimeter;whiteSpace=wrap;html=1;container=1;dropTarget=0;collapsible=0;recursiveResize=0;outlineConnect=0;portConstraint=eastwest;newEdgeStyle={&quot;curved&quot;:0,&quot;rounded&quot;:0};" vertex="1" parent="iSizkOf7c_K9tfDlirgX-57">
          <mxGeometry x="600" y="40" width="100" height="1070" as="geometry" />
        </mxCell>
        <mxCell id="iSizkOf7c_K9tfDlirgX-41" value="" style="html=1;points=[[0,0,0,0,5],[0,1,0,0,-5],[1,0,0,0,5],[1,1,0,0,-5]];perimeter=orthogonalPerimeter;outlineConnect=0;targetShapes=umlLifeline;portConstraint=eastwest;newEdgeStyle={&quot;curved&quot;:0,&quot;rounded&quot;:0};" vertex="1" parent="iSizkOf7c_K9tfDlirgX-15">
          <mxGeometry x="45" y="120" width="10" height="20" as="geometry" />
        </mxCell>
        <mxCell id="iSizkOf7c_K9tfDlirgX-83" value="" style="html=1;points=[[0,0,0,0,5],[0,1,0,0,-5],[1,0,0,0,5],[1,1,0,0,-5]];perimeter=orthogonalPerimeter;outlineConnect=0;targetShapes=umlLifeline;portConstraint=eastwest;newEdgeStyle={&quot;curved&quot;:0,&quot;rounded&quot;:0};" vertex="1" parent="iSizkOf7c_K9tfDlirgX-15">
          <mxGeometry x="45" y="450" width="10" height="20" as="geometry" />
        </mxCell>
        <mxCell id="iSizkOf7c_K9tfDlirgX-14" value="GitHub API" style="shape=umlLifeline;perimeter=lifelinePerimeter;whiteSpace=wrap;html=1;container=1;dropTarget=0;collapsible=0;recursiveResize=0;outlineConnect=0;portConstraint=eastwest;newEdgeStyle={&quot;curved&quot;:0,&quot;rounded&quot;:0};" vertex="1" parent="iSizkOf7c_K9tfDlirgX-57">
          <mxGeometry x="360" y="40" width="100" height="1070" as="geometry" />
        </mxCell>
        <mxCell id="iSizkOf7c_K9tfDlirgX-56" value="" style="html=1;points=[[0,0,0,0,5],[0,1,0,0,-5],[1,0,0,0,5],[1,1,0,0,-5]];perimeter=orthogonalPerimeter;outlineConnect=0;targetShapes=umlLifeline;portConstraint=eastwest;newEdgeStyle={&quot;curved&quot;:0,&quot;rounded&quot;:0};" vertex="1" parent="iSizkOf7c_K9tfDlirgX-14">
          <mxGeometry x="45" y="340" width="10" height="80" as="geometry" />
        </mxCell>
        <mxCell id="iSizkOf7c_K9tfDlirgX-13" value=":Scheduler" style="shape=umlLifeline;perimeter=lifelinePerimeter;whiteSpace=wrap;html=1;container=1;dropTarget=0;collapsible=0;recursiveResize=0;outlineConnect=0;portConstraint=eastwest;newEdgeStyle={&quot;curved&quot;:0,&quot;rounded&quot;:0};" vertex="1" parent="iSizkOf7c_K9tfDlirgX-57">
          <mxGeometry x="120" y="40" width="100" height="580" as="geometry" />
        </mxCell>
        <mxCell id="iSizkOf7c_K9tfDlirgX-20" style="edgeStyle=orthogonalEdgeStyle;rounded=0;orthogonalLoop=1;jettySize=auto;html=1;curved=0;" edge="1" parent="iSizkOf7c_K9tfDlirgX-13" source="iSizkOf7c_K9tfDlirgX-19" target="iSizkOf7c_K9tfDlirgX-19">
          <mxGeometry relative="1" as="geometry">
            <mxPoint x="65" y="100.0344827586207" as="targetPoint" />
            <Array as="points">
              <mxPoint x="80" y="80" />
              <mxPoint x="80" y="100" />
            </Array>
          </mxGeometry>
        </mxCell>
        <mxCell id="iSizkOf7c_K9tfDlirgX-22" value="Initialization" style="edgeLabel;html=1;align=center;verticalAlign=middle;resizable=0;points=[];" vertex="1" connectable="0" parent="iSizkOf7c_K9tfDlirgX-20">
          <mxGeometry x="-0.3371" y="-1" relative="1" as="geometry">
            <mxPoint x="15" y="-1" as="offset" />
          </mxGeometry>
        </mxCell>
        <mxCell id="iSizkOf7c_K9tfDlirgX-84" style="edgeStyle=orthogonalEdgeStyle;rounded=0;orthogonalLoop=1;jettySize=auto;html=1;curved=0;dashed=1;endArrow=open;endFill=0;" edge="1" parent="iSizkOf7c_K9tfDlirgX-57" source="iSizkOf7c_K9tfDlirgX-83" target="iSizkOf7c_K9tfDlirgX-19">
          <mxGeometry relative="1" as="geometry">
            <Array as="points">
              <mxPoint x="410" y="510" />
              <mxPoint x="410" y="510" />
            </Array>
          </mxGeometry>
        </mxCell>
        <mxCell id="iSizkOf7c_K9tfDlirgX-85" value="Successfully saved the data" style="edgeLabel;html=1;align=center;verticalAlign=middle;resizable=0;points=[];" vertex="1" connectable="0" parent="iSizkOf7c_K9tfDlirgX-84">
          <mxGeometry x="-0.2" y="1" relative="1" as="geometry">
            <mxPoint x="83" y="-1" as="offset" />
          </mxGeometry>
        </mxCell>
        <mxCell id="iSizkOf7c_K9tfDlirgX-97" style="edgeStyle=orthogonalEdgeStyle;rounded=0;orthogonalLoop=1;jettySize=auto;html=1;curved=0;dashed=1;endArrow=open;endFill=0;" edge="1" parent="iSizkOf7c_K9tfDlirgX-57" source="iSizkOf7c_K9tfDlirgX-96" target="iSizkOf7c_K9tfDlirgX-19">
          <mxGeometry relative="1" as="geometry">
            <Array as="points">
              <mxPoint x="340" y="660" />
              <mxPoint x="340" y="660" />
            </Array>
          </mxGeometry>
        </mxCell>
        <mxCell id="iSizkOf7c_K9tfDlirgX-98" value="Response [304]&lt;div&gt;No new events&lt;/div&gt;" style="edgeLabel;html=1;align=center;verticalAlign=middle;resizable=0;points=[];" vertex="1" connectable="0" parent="iSizkOf7c_K9tfDlirgX-97">
          <mxGeometry x="0.0161" y="-1" relative="1" as="geometry">
            <mxPoint as="offset" />
          </mxGeometry>
        </mxCell>
        <mxCell id="iSizkOf7c_K9tfDlirgX-96" value="" style="html=1;points=[[0,0,0,0,5],[0,1,0,0,-5],[1,0,0,0,5],[1,1,0,0,-5]];perimeter=orthogonalPerimeter;outlineConnect=0;targetShapes=umlLifeline;portConstraint=eastwest;newEdgeStyle={&quot;curved&quot;:0,&quot;rounded&quot;:0};" vertex="1" parent="iSizkOf7c_K9tfDlirgX-57">
          <mxGeometry x="405" y="600" width="10" height="60" as="geometry" />
        </mxCell>
        <mxCell id="iSizkOf7c_K9tfDlirgX-52" style="edgeStyle=orthogonalEdgeStyle;rounded=0;orthogonalLoop=1;jettySize=auto;html=1;curved=0;elbow=vertical;" edge="1" parent="iSizkOf7c_K9tfDlirgX-57" source="iSizkOf7c_K9tfDlirgX-19" target="iSizkOf7c_K9tfDlirgX-19">
          <mxGeometry relative="1" as="geometry">
            <mxPoint x="185" y="329.97" as="sourcePoint" />
            <mxPoint x="185" y="359.97" as="targetPoint" />
            <Array as="points">
              <mxPoint x="240" y="310" />
              <mxPoint x="240" y="360" />
            </Array>
          </mxGeometry>
        </mxCell>
        <mxCell id="iSizkOf7c_K9tfDlirgX-53" value="Schedule requests&lt;div&gt;based on average time&lt;/div&gt;" style="edgeLabel;html=1;align=center;verticalAlign=middle;resizable=0;points=[];" vertex="1" connectable="0" parent="iSizkOf7c_K9tfDlirgX-52">
          <mxGeometry x="0.159" relative="1" as="geometry">
            <mxPoint x="10" y="-19" as="offset" />
          </mxGeometry>
        </mxCell>
        <mxCell id="iSizkOf7c_K9tfDlirgX-44" style="edgeStyle=orthogonalEdgeStyle;rounded=0;orthogonalLoop=1;jettySize=auto;html=1;curved=0;" edge="1" parent="iSizkOf7c_K9tfDlirgX-57" source="iSizkOf7c_K9tfDlirgX-19" target="iSizkOf7c_K9tfDlirgX-19">
          <mxGeometry relative="1" as="geometry">
            <mxPoint x="180" y="190" as="sourcePoint" />
            <mxPoint x="180" y="240.0344827586207" as="targetPoint" />
            <Array as="points">
              <mxPoint x="235" y="190" />
              <mxPoint x="235" y="240" />
            </Array>
          </mxGeometry>
        </mxCell>
        <mxCell id="iSizkOf7c_K9tfDlirgX-47" value="Get average time statistics&lt;div&gt;Store locally events window&lt;/div&gt;" style="edgeLabel;html=1;align=center;verticalAlign=middle;resizable=0;points=[];" vertex="1" connectable="0" parent="iSizkOf7c_K9tfDlirgX-44">
          <mxGeometry x="0.0048" y="1" relative="1" as="geometry">
            <mxPoint x="29" as="offset" />
          </mxGeometry>
        </mxCell>
        <mxCell id="1" value="general" parent="0" />
        <mxCell id="iSizkOf7c_K9tfDlirgX-16" style="edgeStyle=orthogonalEdgeStyle;rounded=0;orthogonalLoop=1;jettySize=auto;html=1;curved=0;endArrow=oval;endFill=1;" edge="1" parent="1" source="iSizkOf7c_K9tfDlirgX-13">
          <mxGeometry relative="1" as="geometry">
            <mxPoint x="40" y="100" as="targetPoint" />
            <Array as="points">
              <mxPoint x="81" y="100" />
              <mxPoint x="40" y="101" />
            </Array>
          </mxGeometry>
        </mxCell>
        <mxCell id="iSizkOf7c_K9tfDlirgX-17" value="App start" style="edgeLabel;html=1;align=center;verticalAlign=middle;resizable=0;points=[];" vertex="1" connectable="0" parent="iSizkOf7c_K9tfDlirgX-16">
          <mxGeometry x="0.087" relative="1" as="geometry">
            <mxPoint as="offset" />
          </mxGeometry>
        </mxCell>
        <mxCell id="iSizkOf7c_K9tfDlirgX-38" style="edgeStyle=orthogonalEdgeStyle;rounded=0;orthogonalLoop=1;jettySize=auto;html=1;curved=0;" edge="1" parent="1" source="iSizkOf7c_K9tfDlirgX-19" target="iSizkOf7c_K9tfDlirgX-41">
          <mxGeometry relative="1" as="geometry">
            <mxPoint x="185" y="160.0344827586207" as="sourcePoint" />
            <mxPoint x="640" y="160" as="targetPoint" />
            <Array as="points">
              <mxPoint x="290" y="160" />
              <mxPoint x="290" y="160" />
            </Array>
          </mxGeometry>
        </mxCell>
        <mxCell id="iSizkOf7c_K9tfDlirgX-39" value="Get data from DB" style="edgeLabel;html=1;align=center;verticalAlign=middle;resizable=0;points=[];" vertex="1" connectable="0" parent="iSizkOf7c_K9tfDlirgX-38">
          <mxGeometry x="-0.6777" y="1" relative="1" as="geometry">
            <mxPoint x="51" y="1" as="offset" />
          </mxGeometry>
        </mxCell>
        <mxCell id="iSizkOf7c_K9tfDlirgX-42" style="edgeStyle=orthogonalEdgeStyle;rounded=0;orthogonalLoop=1;jettySize=auto;html=1;curved=0;dashed=1;endArrow=open;endFill=0;" edge="1" parent="1" source="iSizkOf7c_K9tfDlirgX-41" target="iSizkOf7c_K9tfDlirgX-19">
          <mxGeometry relative="1" as="geometry">
            <mxPoint x="185" y="180.0344827586207" as="targetPoint" />
            <Array as="points">
              <mxPoint x="410" y="180" />
              <mxPoint x="410" y="180" />
            </Array>
          </mxGeometry>
        </mxCell>
        <mxCell id="iSizkOf7c_K9tfDlirgX-43" value="Events data from active repos" style="edgeLabel;html=1;align=center;verticalAlign=middle;resizable=0;points=[];" vertex="1" connectable="0" parent="iSizkOf7c_K9tfDlirgX-42">
          <mxGeometry x="0.5931" y="-1" relative="1" as="geometry">
            <mxPoint x="253" y="1" as="offset" />
          </mxGeometry>
        </mxCell>
        <mxCell id="iSizkOf7c_K9tfDlirgX-106" style="edgeStyle=orthogonalEdgeStyle;rounded=0;orthogonalLoop=1;jettySize=auto;html=1;curved=0;endArrow=oval;endFill=1;" edge="1" parent="1" source="iSizkOf7c_K9tfDlirgX-19">
          <mxGeometry relative="1" as="geometry">
            <mxPoint x="40" y="1110" as="targetPoint" />
            <Array as="points">
              <mxPoint x="40" y="1110" />
            </Array>
          </mxGeometry>
        </mxCell>
        <mxCell id="iSizkOf7c_K9tfDlirgX-107" value="Application&lt;div&gt;shutdown&lt;/div&gt;" style="edgeLabel;html=1;align=center;verticalAlign=middle;resizable=0;points=[];" vertex="1" connectable="0" parent="iSizkOf7c_K9tfDlirgX-106">
          <mxGeometry x="0.1775" relative="1" as="geometry">
            <mxPoint x="18" as="offset" />
          </mxGeometry>
        </mxCell>
        <mxCell id="iSizkOf7c_K9tfDlirgX-19" value="" style="html=1;points=[[0,0,0,0,5],[0,1,0,0,-5],[1,0,0,0,5],[1,1,0,0,-5]];perimeter=orthogonalPerimeter;outlineConnect=0;targetShapes=umlLifeline;portConstraint=eastwest;newEdgeStyle={&quot;curved&quot;:0,&quot;rounded&quot;:0};" vertex="1" parent="1">
          <mxGeometry x="165" y="100" width="10" height="1010" as="geometry" />
        </mxCell>
        <mxCell id="iSizkOf7c_K9tfDlirgX-54" style="edgeStyle=orthogonalEdgeStyle;rounded=0;orthogonalLoop=1;jettySize=auto;html=1;curved=0;" edge="1" parent="1" source="iSizkOf7c_K9tfDlirgX-19" target="iSizkOf7c_K9tfDlirgX-56">
          <mxGeometry relative="1" as="geometry">
            <mxPoint x="400" y="360" as="targetPoint" />
            <Array as="points">
              <mxPoint x="280" y="380" />
              <mxPoint x="280" y="380" />
            </Array>
          </mxGeometry>
        </mxCell>
        <mxCell id="iSizkOf7c_K9tfDlirgX-58" value="Scheduled API request" style="edgeLabel;html=1;align=center;verticalAlign=middle;resizable=0;points=[];" vertex="1" connectable="0" parent="iSizkOf7c_K9tfDlirgX-54">
          <mxGeometry x="-0.3466" relative="1" as="geometry">
            <mxPoint x="40" as="offset" />
          </mxGeometry>
        </mxCell>
        <mxCell id="iSizkOf7c_K9tfDlirgX-71" style="edgeStyle=orthogonalEdgeStyle;rounded=0;orthogonalLoop=1;jettySize=auto;html=1;curved=0;dashed=1;endArrow=open;endFill=0;" edge="1" parent="1" source="iSizkOf7c_K9tfDlirgX-68">
          <mxGeometry relative="1" as="geometry">
            <mxPoint x="175" y="800" as="targetPoint" />
            <mxPoint x="400" y="840" as="sourcePoint" />
            <Array as="points">
              <mxPoint x="290" y="800" />
              <mxPoint x="290" y="800" />
            </Array>
          </mxGeometry>
        </mxCell>
        <mxCell id="iSizkOf7c_K9tfDlirgX-72" value="Timeout&lt;div&gt;GitHub does not respond&lt;/div&gt;&lt;div&gt;for too long&lt;/div&gt;" style="edgeLabel;html=1;align=center;verticalAlign=middle;resizable=0;points=[];" vertex="1" connectable="0" parent="iSizkOf7c_K9tfDlirgX-71">
          <mxGeometry x="0.0651" relative="1" as="geometry">
            <mxPoint x="-3" as="offset" />
          </mxGeometry>
        </mxCell>
        <mxCell id="iSizkOf7c_K9tfDlirgX-68" value="" style="html=1;points=[[0,0,0,0,5],[0,1,0,0,-5],[1,0,0,0,5],[1,1,0,0,-5]];perimeter=orthogonalPerimeter;outlineConnect=0;targetShapes=umlLifeline;portConstraint=eastwest;newEdgeStyle={&quot;curved&quot;:0,&quot;rounded&quot;:0};" vertex="1" parent="1">
          <mxGeometry x="405" y="750" width="10" height="50" as="geometry" />
        </mxCell>
        <mxCell id="iSizkOf7c_K9tfDlirgX-74" value="" style="html=1;points=[[0,0,0,0,5],[0,1,0,0,-5],[1,0,0,0,5],[1,1,0,0,-5]];perimeter=orthogonalPerimeter;outlineConnect=0;targetShapes=umlLifeline;portConstraint=eastwest;newEdgeStyle={&quot;curved&quot;:0,&quot;rounded&quot;:0};" vertex="1" parent="1">
          <mxGeometry x="405" y="890" width="10" height="50" as="geometry" />
        </mxCell>
        <mxCell id="iSizkOf7c_K9tfDlirgX-86" style="edgeStyle=orthogonalEdgeStyle;rounded=0;orthogonalLoop=1;jettySize=auto;html=1;curved=0;" edge="1" parent="1" target="iSizkOf7c_K9tfDlirgX-19">
          <mxGeometry relative="1" as="geometry">
            <mxPoint x="175" y="530" as="sourcePoint" />
            <mxPoint x="175" y="560" as="targetPoint" />
            <Array as="points">
              <mxPoint x="175" y="520" />
              <mxPoint x="220" y="520" />
              <mxPoint x="220" y="580" />
            </Array>
          </mxGeometry>
        </mxCell>
        <mxCell id="iSizkOf7c_K9tfDlirgX-94" value="Update window&amp;nbsp;&lt;div&gt;Append new events&lt;/div&gt;&lt;div&gt;Filter out events by window size&lt;/div&gt;" style="edgeLabel;html=1;align=center;verticalAlign=middle;resizable=0;points=[];" vertex="1" connectable="0" parent="iSizkOf7c_K9tfDlirgX-86">
          <mxGeometry x="-0.0071" y="1" relative="1" as="geometry">
            <mxPoint x="49" y="5" as="offset" />
          </mxGeometry>
        </mxCell>
        <mxCell id="iSizkOf7c_K9tfDlirgX-100" style="edgeStyle=orthogonalEdgeStyle;rounded=0;orthogonalLoop=1;jettySize=auto;html=1;curved=0;" edge="1" parent="1">
          <mxGeometry relative="1" as="geometry">
            <mxPoint x="175" y="690" as="sourcePoint" />
            <mxPoint x="175" y="740" as="targetPoint" />
            <Array as="points">
              <mxPoint x="175" y="680" />
              <mxPoint x="220" y="680" />
              <mxPoint x="220" y="740" />
              <mxPoint x="175" y="740" />
            </Array>
          </mxGeometry>
        </mxCell>
        <mxCell id="iSizkOf7c_K9tfDlirgX-101" value="Update window&lt;div&gt;Filter out events by window size&lt;/div&gt;&lt;div&gt;Add current time delta&lt;/div&gt;" style="edgeLabel;html=1;align=center;verticalAlign=middle;resizable=0;points=[];" vertex="1" connectable="0" parent="iSizkOf7c_K9tfDlirgX-100">
          <mxGeometry x="-0.0013" y="1" relative="1" as="geometry">
            <mxPoint x="49" y="5" as="offset" />
          </mxGeometry>
        </mxCell>
        <mxCell id="iSizkOf7c_K9tfDlirgX-102" style="edgeStyle=orthogonalEdgeStyle;rounded=0;orthogonalLoop=1;jettySize=auto;html=1;curved=0;" edge="1" parent="1">
          <mxGeometry relative="1" as="geometry">
            <mxPoint x="175" y="830" as="sourcePoint" />
            <mxPoint x="175" y="880" as="targetPoint" />
            <Array as="points">
              <mxPoint x="175" y="820" />
              <mxPoint x="220" y="820" />
              <mxPoint x="220" y="880" />
              <mxPoint x="175" y="880" />
            </Array>
          </mxGeometry>
        </mxCell>
        <mxCell id="iSizkOf7c_K9tfDlirgX-103" value="Update window&lt;div&gt;Filter out events by window size&lt;/div&gt;&lt;div&gt;Add current time delta&lt;/div&gt;" style="edgeLabel;html=1;align=center;verticalAlign=middle;resizable=0;points=[];" vertex="1" connectable="0" parent="iSizkOf7c_K9tfDlirgX-102">
          <mxGeometry x="-0.0447" relative="1" as="geometry">
            <mxPoint x="50" y="9" as="offset" />
          </mxGeometry>
        </mxCell>
        <mxCell id="iSizkOf7c_K9tfDlirgX-104" style="edgeStyle=orthogonalEdgeStyle;rounded=0;orthogonalLoop=1;jettySize=auto;html=1;curved=0;" edge="1" parent="1" source="iSizkOf7c_K9tfDlirgX-19">
          <mxGeometry relative="1" as="geometry">
            <mxPoint x="175" y="690" as="sourcePoint" />
            <mxPoint x="175" y="1030" as="targetPoint" />
            <Array as="points">
              <mxPoint x="220" y="960" />
              <mxPoint x="220" y="1030" />
            </Array>
          </mxGeometry>
        </mxCell>
        <mxCell id="iSizkOf7c_K9tfDlirgX-105" value="Update window&lt;div&gt;Filter out events by window size&lt;/div&gt;&lt;div&gt;Add current time delta&lt;/div&gt;&lt;div&gt;Follow error response instructions&lt;/div&gt;" style="edgeLabel;html=1;align=center;verticalAlign=middle;resizable=0;points=[];" vertex="1" connectable="0" parent="iSizkOf7c_K9tfDlirgX-104">
          <mxGeometry x="-0.0667" y="-2" relative="1" as="geometry">
            <mxPoint x="52" y="1" as="offset" />
          </mxGeometry>
        </mxCell>
        <mxCell id="iSizkOf7c_K9tfDlirgX-31" value="frames" style="" parent="0" />
        <mxCell id="iSizkOf7c_K9tfDlirgX-61" value="Repeat concurrently for each active repository" style="shape=umlFrame;whiteSpace=wrap;html=1;pointerEvents=0;width=280;height=25;" vertex="1" parent="iSizkOf7c_K9tfDlirgX-31">
          <mxGeometry x="90" y="270" width="620" height="810" as="geometry" />
        </mxCell>
        <mxCell id="iSizkOf7c_K9tfDlirgX-62" value="alt 1 - there are new events" style="shape=umlFrame;whiteSpace=wrap;html=1;pointerEvents=0;width=180;height=20;" vertex="1" parent="iSizkOf7c_K9tfDlirgX-31">
          <mxGeometry x="140" y="400" width="540" height="200" as="geometry" />
        </mxCell>
        <mxCell id="iSizkOf7c_K9tfDlirgX-64" value="alt 3 - long github response (up to 6 hours)" style="shape=umlFrame;whiteSpace=wrap;html=1;pointerEvents=0;width=250;height=20;" vertex="1" parent="iSizkOf7c_K9tfDlirgX-31">
          <mxGeometry x="140" y="750" width="540" height="140" as="geometry" />
        </mxCell>
        <mxCell id="iSizkOf7c_K9tfDlirgX-65" value="else&amp;nbsp;" style="shape=umlFrame;whiteSpace=wrap;html=1;pointerEvents=0;width=170;height=15;" vertex="1" parent="iSizkOf7c_K9tfDlirgX-31">
          <mxGeometry x="140" y="890" width="540" height="160" as="geometry" />
        </mxCell>
        <mxCell id="iSizkOf7c_K9tfDlirgX-66" style="edgeStyle=orthogonalEdgeStyle;rounded=0;orthogonalLoop=1;jettySize=auto;html=1;curved=0;startArrow=open;startFill=0;endArrow=none;endFill=0;dashed=1;" edge="1" parent="iSizkOf7c_K9tfDlirgX-31" source="iSizkOf7c_K9tfDlirgX-19" target="iSizkOf7c_K9tfDlirgX-56">
          <mxGeometry relative="1" as="geometry">
            <Array as="points">
              <mxPoint x="290" y="460" />
              <mxPoint x="290" y="460" />
            </Array>
          </mxGeometry>
        </mxCell>
        <mxCell id="iSizkOf7c_K9tfDlirgX-67" value="Response [200]&lt;div&gt;Events data&lt;/div&gt;" style="edgeLabel;html=1;align=center;verticalAlign=middle;resizable=0;points=[];" vertex="1" connectable="0" parent="iSizkOf7c_K9tfDlirgX-66">
          <mxGeometry x="0.1246" y="2" relative="1" as="geometry">
            <mxPoint x="-14" y="2" as="offset" />
          </mxGeometry>
        </mxCell>
        <mxCell id="iSizkOf7c_K9tfDlirgX-75" style="edgeStyle=orthogonalEdgeStyle;rounded=0;orthogonalLoop=1;jettySize=auto;html=1;curved=0;dashed=1;endArrow=open;endFill=0;" edge="1" parent="iSizkOf7c_K9tfDlirgX-31" source="iSizkOf7c_K9tfDlirgX-74" target="iSizkOf7c_K9tfDlirgX-19">
          <mxGeometry relative="1" as="geometry">
            <mxPoint x="175" y="900" as="targetPoint" />
            <Array as="points">
              <mxPoint x="290" y="940" />
              <mxPoint x="290" y="940" />
            </Array>
          </mxGeometry>
        </mxCell>
        <mxCell id="iSizkOf7c_K9tfDlirgX-76" value="Error code response" style="edgeLabel;html=1;align=center;verticalAlign=middle;resizable=0;points=[];" vertex="1" connectable="0" parent="iSizkOf7c_K9tfDlirgX-75">
          <mxGeometry x="0.0335" y="2" relative="1" as="geometry">
            <mxPoint x="4" y="-2" as="offset" />
          </mxGeometry>
        </mxCell>
        <mxCell id="iSizkOf7c_K9tfDlirgX-79" style="edgeStyle=orthogonalEdgeStyle;rounded=0;orthogonalLoop=1;jettySize=auto;html=1;curved=0;" edge="1" parent="iSizkOf7c_K9tfDlirgX-31" source="iSizkOf7c_K9tfDlirgX-19" target="iSizkOf7c_K9tfDlirgX-83">
          <mxGeometry relative="1" as="geometry">
            <Array as="points">
              <mxPoint x="290" y="490" />
              <mxPoint x="290" y="490" />
            </Array>
          </mxGeometry>
        </mxCell>
        <mxCell id="iSizkOf7c_K9tfDlirgX-80" value="Save new events to DB" style="edgeLabel;html=1;align=center;verticalAlign=middle;resizable=0;points=[];" vertex="1" connectable="0" parent="iSizkOf7c_K9tfDlirgX-79">
          <mxGeometry x="-0.6086" y="2" relative="1" as="geometry">
            <mxPoint x="43" y="2" as="offset" />
          </mxGeometry>
        </mxCell>
        <mxCell id="iSizkOf7c_K9tfDlirgX-95" value="alt 2 - there are no new events" style="shape=umlFrame;whiteSpace=wrap;html=1;pointerEvents=0;width=200;height=20;" vertex="1" parent="iSizkOf7c_K9tfDlirgX-31">
          <mxGeometry x="140" y="600" width="540" height="150" as="geometry" />
        </mxCell>
      </root>
    </mxGraphModel>
  </diagram>
</mxfile>
